PathFileType	4	(X/Y/Z)	C:/Users/opensim2020/Desktop/walking_exp_matlab/subject01_walking06_straight_02.trc																																																																																																																															
DataRate	CameraRate	NumFrames	NumMarkers	Units	OrigDataRate	OrigDataStartFrame	OrigNumFrames																																																																																																																											
100	100	4	43	mm	100	1643	171																																																																																																																											
Frame#	Time	LFHD			RFHD			LBHD			RBHD			C7			T10			CLAV			STRN			RBAK			LSHO			LUPA			LELB			LFRM			LWRA			LWRB			LFIN			RSHO			RUPA			RELB			RFRM			RWRA			RWRB			RFIN			LASI			RASI			LPSI			RPSI			LTHI			LKNE			LTIB			LANK			LHEE			LTOE			RTHI			RKNE			RTIB			RANK			RHEE			RTOE			*39			*40			*41			*42		
		X1	Y1	Z1	X2	Y2	Z2	X3	Y3	Z3	X4	Y4	Z4	X5	Y5	Z5	X6	Y6	Z6	X7	Y7	Z7	X8	Y8	Z8	X9	Y9	Z9	X10	Y10	Z10	X11	Y11	Z11	X12	Y12	Z12	X13	Y13	Z13	X14	Y14	Z14	X15	Y15	Z15	X16	Y16	Z16	X17	Y17	Z17	X18	Y18	Z18	X19	Y19	Z19	X20	Y20	Z20	X21	Y21	Z21	X22	Y22	Z22	X23	Y23	Z23	X24	Y24	Z24	X25	Y25	Z25	X26	Y26	Z26	X27	Y27	Z27	X28	Y28	Z28	X29	Y29	Z29	X30	Y30	Z30	X31	Y31	Z31	X32	Y32	Z32	X33	Y33	Z33	X34	Y34	Z34	X35	Y35	Z35	X36	Y36	Z36	X37	Y37	Z37	X38	Y38	Z38	X39	Y39	Z39	X40	Y40	Z40	X41	Y41	Z41	X42	Y42	Z42	X43	Y43	Z43
																																																																																																																																		
129	1.28	362.97708	1656.10181	1075.30261	406.20667	1658.65723	1182.36804	247.34445	1624.69763	1116.2655	290.31903	1627.79761	1229.57263	201.67772	1425.81812	1153.56287	165.24254	1131.56348	1153.25476	343.89435	1354.00269	1140.06421	384.9845	1200.74304	1133.52368	150.76266	1231.43384	1232.97156	271.25797	1385.97754	983.44757	208.3316	1205.64258	905.315	166.40459	1063.62341	914.60455	169.82353	949.67737	890.6944	206.53633	814.0921	913.72498	155.02184	827.89325	885.03363	172.11603	742.54327	887.2735	293.90863	1383.33655	1296.6803	266.54807	1182.37744	1405.07349	286.85358	1057.1272	1413.29175	357.6987	956.68793	1439.32385	477.27191	883.3595	1414.55676	437.98294	864.80505	1452.68201	503.7728	811.30487	1451.47131	342.94635	926.21277	1041.26953	335.76212	924.56702	1260.26794	155.37219	937.06946	1084.80347	151.21211	945.75452	1228.71692	367.98502	603.22003	964.79242	400.6485	475.88229	985.32294	419.45081	293.8349	972.48456	496.82019	81.83172	1015.30109	472.99042	39.81378	1074.55762	644.10358	91.57833	998.7348	221.03706	602.10193	1307.20825	194.02431	443.63519	1281.04688	103.5201	291.80685	1286.1051	34.06857	94.87533	1232.66638	-21.23974	68.68244	1182.99426	166.97102	34.03079	1222.55322	392.36581	1693.65247	1162.50842	-1973.10315	1024.00134	3102.198	-2012.54614	1022.10181	3140.81445	NaN	NaN	NaN
130	1.29	372.54611	1655.14233	1073.23438	415.77597	1657.61963	1180.25476	256.98242	1623.68787	1114.13452	299.92255	1626.81616	1227.45703	211.47488	1424.51025	1151.0575	175.26469	1130.31567	1151.2113	353.67334	1353.00378	1138.2959	394.84888	1199.73718	1132.07971	160.43784	1230.23718	1230.83765	280.98425	1384.57703	981.51257	217.91579	1204.19873	903.62091	175.39861	1062.12439	913.16321	178.57828	948.3009	889.63831	214.85112	812.80103	913.13617	163.50641	826.62451	884.07233	180.57797	741.12469	886.76843	303.38062	1382.44836	1294.78577	276.46906	1181.58606	1403.49841	296.95755	1056.4104	1412.05981	368.39957	956.5318	1438.39807	488.29663	883.7326	1413.62805	449.0968	865.02679	1451.75513	515.23779	811.8974	1450.66699	353.73129	924.67419	1040.63477	345.33969	923.57922	1259.42993	165.78638	936.04309	1082.51575	160.81633	944.94238	1226.42322	378.77582	602.43066	964.39099	411.00381	474.90945	984.78229	430.97952	292.8447	972.16235	510.06317	81.46683	1015.40118	486.2627	39.27407	1074.85327	657.29419	92.08131	999.28503	228.55779	601.74536	1306.547	200.47968	443.28729	1280.77588	107.7023	292.82986	1285.97876	35.19045	96.8612	1233.13098	-20.53814	71.54172	1183.53076	167.02721	34.00124	1222.74353	401.99683	1692.61267	1160.40625	-1973.00452	1024.53503	3102.5459	-2013.1781	1022.35889	3138.396	NaN	NaN	NaN
131	1.3	382.23138	1653.98291	1071.03503	425.39563	1656.65002	1178.11865	266.59186	1622.65234	1111.88477	309.54285	1625.83435	1225.23975	221.15414	1423.39014	1148.90234	185.33392	1129.09436	1149.22644	363.45114	1351.99927	1136.45581	404.88736	1198.7998	1130.6001	170.17607	1229.00537	1228.63379	290.88263	1383.19763	979.47211	227.69254	1202.77759	901.8067	184.65706	1060.98193	911.67853	187.65221	946.89355	888.37109	223.71179	811.41571	912.20343	172.52194	825.20459	882.97375	189.47411	739.73462	886.09393	312.8909	1381.50647	1292.84778	286.19537	1180.78772	1401.70093	306.85971	1055.70532	1410.6814	378.67548	956.17126	1437.19617	499.00134	883.93939	1412.69678	459.87299	865.10657	1450.84387	526.2074	812.36664	1449.90405	364.56967	923.25146	1039.77417	355.0347	922.44684	1258.59546	176.30312	935.07458	1080.28223	170.68793	944.09863	1224.0647	391.11859	601.91046	964.25842	422.10504	474.06604	984.45764	441.40466	291.39227	972.30341	520.32709	80.09959	1015.71503	497.02542	38.24909	1075.02039	668.18896	90.95858	999.73309	236.32069	601.6037	1306.38245	207.12996	442.96176	1280.33948	112.16943	293.84747	1285.7915	36.50447	98.93834	1233.63818	-19.51668	74.63998	1184.25403	167.35092	34.05053	1222.88135	411.70691	1691.73352	1158.34009	-1972.96008	1023.89209	3102.59009	-2013.2373	1022.47723	3137.99829	NaN	NaN	NaN
132	1.31	392.33868	1653.13403	1068.87463	435.00439	1655.69299	1175.87854	276.2959	1621.65442	1109.59387	319.11765	1624.85852	1222.97864	230.79565	1422.41028	1146.71313	195.58643	1127.90112	1147.18213	373.21567	1350.95374	1134.46375	414.95264	1197.87573	1128.96338	179.99113	1227.86487	1226.42554	300.78217	1381.81348	977.36261	237.54468	1201.27563	899.91693	194.13152	1059.44067	909.99261	197.00093	945.4657	886.99097	233.01404	810.08563	911.14343	181.86234	823.76495	881.8562	198.98209	738.29614	885.13477	322.4823	1380.62463	1290.77832	295.69824	1180.0116	1399.77039	316.61703	1055.00928	1409.18274	388.76093	955.76642	1435.96216	509.31937	883.93921	1411.66223	470.23361	864.98328	1449.80859	536.73999	812.58978	1449.06665	375.46414	922.08447	1038.72473	364.98825	921.45514	1257.52332	186.9041	934.15277	1078.15637	180.89404	943.28461	1221.76733	404.33911	601.67743	964.25153	433.55228	473.41882	984.30597	451.4631	290.06653	972.42108	528.91589	78.28912	1016.33331	504.86774	36.69107	1075.84058	676.06799	87.97947	999.97644	244.50691	601.34149	1305.79651	214.29799	442.65802	1280.25208	116.6659	295.15112	1285.42322	38.03394	101.08851	1234.30737	-18.48494	77.81703	1184.75562	167.47105	34.07644	1222.95032	421.23434	1690.62659	1155.99707	-1972.97668	1024.02515	3102.48413	-2013.09644	1022.29535	3138.34448	NaN	NaN	NaN
